<svg id="Layer_1" enable-background="new 0 0 512 512" height="512" viewBox="0 0 512 512" width="512" xmlns="http://www.w3.org/2000/svg"><g><path d="m488 64v336c0 13.25-10.75 24-24 24h-416c-13.25 0-24-10.75-24-24v-336c0-13.25 10.75-24 24-24h416c13.25 0 24 10.75 24 24z" fill="#e2e0e0"/><path d="m464 40c13.25 0 24 10.75 24 24v56h-464v-56c0-13.25 10.75-24 24-24z" fill="#f79caf"/><path d="m488 64v336c0 13.25-10.75 24-24 24h-40c13.25 0 24-10.75 24-24v-336c0-13.25-10.75-24-24-24h40c13.25 0 24 10.75 24 24z" fill="#cecccc"/><path d="m488 64v56h-40v-56c0-13.25-10.75-24-24-24h40c13.25 0 24 10.75 24 24z" fill="#e3889b"/><path d="m128 24v40c0 8.837-7.163 16-16 16-8.809 0-16-7.136-16-16v-40c0-8.837 7.163-16 16-16 8.809 0 16 7.136 16 16z" fill="#f3d4b7"/><path d="m416 24v40c0 8.837-7.163 16-16 16-8.809 0-16-7.136-16-16v-40c0-8.837 7.163-16 16-16 8.809 0 16 7.136 16 16z" fill="#f3d4b7"/><path d="m296 240v72c0 37-28.05 67.55-64 71.54 0 23.03-.01 34.48 0 40.46h-16c-.01-6 0-17.45 0-40.46-35.95-3.99-64-34.54-64-71.54v-72c0-17.64 14.35-32 32-32 4.42 0 8 3.58 8 8s-3.58 8-8 8c-8.82 0-16 7.18-16 16v72c0 30.88 25.12 56 56 56s56-25.12 56-56v-72c0-8.82-7.18-16-16-16-4.42 0-8-3.58-8-8s3.58-8 8-8c17.65 0 32 14.36 32 32z" fill="#cecccc"/><path d="m384 383.32c0 23.12.01 34.65 0 40.68h-16c.01-6.01 0-17.53 0-40.68-22.67-3.82-40-23.58-40-47.32 0-26.47 21.53-48 48-48s48 21.53 48 48c0 23.74-17.33 43.5-40 47.32z" fill="#cecccc"/><circle cx="344" cy="336" fill="#f3d4b7" r="40"/><path d="m384 336c0 27.188-26.496 46.233-52 38.16 16.23-5.09 28-20.25 28-38.16s-11.77-33.07-28-38.16c25.514-8.076 52 10.984 52 38.16z" fill="#e1c3a7"/><path d="m464 32h-40v-8c0-13.233-10.766-24-24-24s-24 10.767-24 24v8h-240v-8c0-13.233-10.766-24-24-24s-24 10.767-24 24v8h-40c-17.645 0-32 14.355-32 32v336c0 17.645 14.355 32 32 32h112c4.418 0 8-3.582 8-8s-3.582-8-8-8h-112c-8.822 0-16-7.178-16-16v-272h448v272c0 8.822-7.178 16-16 16h-88c-4.418 0-8 3.582-8 8s3.582 8 8 8h88c17.645 0 32-14.355 32-32 0-14.641 0-319.924 0-336 0-17.645-14.355-32-32-32zm-72-8c0-4.411 3.589-8 8-8s8 3.589 8 8v40c0 4.411-3.589 8-8 8s-8-3.589-8-8zm-288 0c0-4.411 3.589-8 8-8s8 3.589 8 8v40c0 4.411-3.589 8-8 8s-8-3.589-8-8zm-72 88v-48c0-8.822 7.178-16 16-16h40v16c0 13.233 10.766 24 24 24s24-10.767 24-24v-16h240v16c0 13.233 10.766 24 24 24s24-10.767 24-24v-16h40c8.822 0 16 7.178 16 16v48z"/><path d="m392 336c0-26.468-21.533-48-48-48s-48 21.532-48 48c0 23.741 17.329 43.5 40 47.321v44.679c0 37.495-30.505 68-68 68s-68-30.505-68-68v-44.455c35.948-3.994 64-34.549 64-71.545v-72c0-17.645-14.355-32-32-32-4.418 0-8 3.582-8 8s3.582 8 8 8c8.822 0 16 7.178 16 16v72c0 30.879-25.122 56-56 56s-56-25.121-56-56v-72c0-8.822 7.178-16 16-16 4.418 0 8-3.582 8-8s-3.582-8-8-8c-17.645 0-32 14.355-32 32v72c0 36.996 28.052 67.551 64 71.545v44.455c0 46.317 37.682 84 84 84s84-37.683 84-84v-44.679c22.671-3.821 40-23.58 40-47.321zm-80 0c0-17.645 14.355-32 32-32s32 14.355 32 32c0 14.883-10.214 27.426-24 30.987v-17.152c4.774-2.771 8-7.928 8-13.835 0-8.822-7.178-16-16-16s-16 7.178-16 16c0 5.907 3.226 11.063 8 13.835v17.152c-13.786-3.561-24-16.104-24-30.987z"/></g></svg>